<svg width="334" height="282" viewBox="0 0 334 282" fill="none" xmlns="http://www.w3.org/2000/svg">
<rect width="334" height="282" rx="8" fill="white"/>
<g filter="url(#filter0_d_106_376)">
<rect x="24" y="16" width="196" height="146" rx="8" fill="white"/>
<rect x="25" y="17" width="194" height="144" rx="7" stroke="#2684FF" stroke-width="2"/>
<path fill-rule="evenodd" clip-rule="evenodd" d="M137.167 53.7742C137.167 53.2546 136.728 52.8333 136.187 52.8333L124.036 52.8333C122.153 52.8333 120.621 54.3057 120.621 56.1152C120.621 57.1118 120.999 57.6591 121.276 58.0589C121.492 58.3717 121.6 58.5287 121.6 58.9489C121.6 60.2459 120.282 61.3011 118.663 61.3011C117.044 61.3011 115.726 60.2459 115.726 58.9489C115.726 58.5287 115.834 58.3717 116.05 58.0589C116.327 57.6591 116.705 57.1118 116.705 56.1152C116.705 54.3057 115.173 52.8333 113.29 52.8333H104.957C104.416 52.8333 103.978 53.2546 103.978 53.7742V62.7237C103.978 63.4956 103.324 64.1237 102.521 64.1237C102.075 64.1237 101.9 64.0119 101.582 63.8089C101.167 63.5447 100.6 63.1828 99.5721 63.1828C97.1428 63.1828 95.1665 65.2932 95.1665 67.8871C95.1665 70.4812 97.1428 72.5914 99.5721 72.5914C100.6 72.5914 101.167 72.2296 101.582 71.9654C101.9 71.7624 102.075 71.6505 102.521 71.6505C103.324 71.6505 103.978 72.2787 103.978 73.0507V81.0591C103.978 81.5789 104.416 82 104.957 82H121.307C121.848 82 122.286 81.5789 122.286 81.0591C122.286 80.5396 121.848 80.1183 121.307 80.1183H105.936V73.0507C105.936 71.2412 104.404 69.7688 102.521 69.7688C101.484 69.7688 100.914 70.1324 100.498 70.3978C100.173 70.6055 100.009 70.7097 99.5721 70.7097C98.2225 70.7097 97.1245 69.4435 97.1245 67.8871C97.1245 66.3308 98.2225 65.0645 99.5721 65.0645C100.009 65.0645 100.173 65.1688 100.498 65.3765C100.914 65.642 101.484 66.0054 102.521 66.0054C104.404 66.0054 105.936 64.5332 105.936 62.7237V54.7151H113.29C114.093 54.7151 114.747 55.3432 114.747 56.1152C114.747 56.544 114.631 56.7123 114.419 57.0179C114.144 57.4158 113.768 57.9608 113.768 58.9489C113.768 61.2836 115.964 63.1828 118.663 63.1828C121.362 63.1828 123.558 61.2836 123.558 58.9489C123.558 57.9608 123.182 57.4158 122.907 57.0179C122.695 56.7123 122.579 56.544 122.579 56.1152C122.579 55.3432 123.233 54.7151 124.036 54.7151H135.208V58.4785C135.208 58.9981 135.647 59.4194 136.187 59.4194C136.728 59.4194 137.167 58.9981 137.167 58.4785V53.7742Z" fill="#67A8FC"/>
<path d="M128.363 66.9912C133.04 62.3303 140.65 62.3303 145.326 66.9912C150.002 71.6524 150.002 79.2363 145.326 83.8975C142.988 86.2279 139.916 87.3936 136.845 87.3936C134.374 87.3936 131.903 86.6393 129.813 85.1309L129.852 85.168L128.16 86.8526C128.609 87.4596 128.853 88.1906 128.853 88.959C128.852 89.909 128.482 90.8026 127.808 91.4746L120.958 98.3018C120.284 98.9736 119.388 99.3438 118.435 99.3438C117.481 99.3437 116.585 98.9736 115.911 98.3018C115.237 97.63 114.866 96.7364 114.866 95.7861C114.866 94.8359 115.237 93.9424 115.911 93.2705L122.761 86.4434C123.643 85.5639 124.876 85.2424 126.016 85.4785L127.992 83.5088C123.692 78.824 123.815 71.5253 128.363 66.9912ZM125.284 87.5576C124.924 87.5577 124.565 87.6948 124.291 87.9678L117.441 94.7949C117.176 95.0595 117.03 95.412 117.03 95.7861C117.03 96.1601 117.176 96.5119 117.441 96.7764C117.707 97.0411 118.06 97.1865 118.436 97.1865C118.811 97.1865 119.163 97.0408 119.429 96.7764H119.43L126.278 89.9483C126.544 89.6837 126.689 89.3321 126.689 88.958C126.689 88.5838 126.544 88.2323 126.278 87.9678C126.004 87.6947 125.644 87.5576 125.284 87.5576ZM136.845 65.7705C134.358 65.7705 131.872 66.7141 129.979 68.6006C126.194 72.3738 126.194 78.5138 129.979 82.2871C131.872 84.1734 134.359 85.1171 136.845 85.1172C139.331 85.1173 141.817 84.174 143.71 82.2871C147.496 78.5138 147.496 72.3738 143.71 68.6006C141.817 66.7141 139.331 65.7705 136.845 65.7705ZM135.419 67.5254C136.016 67.3398 136.635 67.725 136.803 68.3867C136.971 69.0483 136.623 69.7363 136.027 69.9229C135.144 70.1991 134.332 70.7288 133.679 71.4541C132.574 72.68 132.002 74.3755 132.108 76.1065C132.15 76.7923 131.683 77.3868 131.065 77.4336C131.039 77.4356 131.013 77.4365 130.987 77.4365C130.403 77.4364 129.91 76.9334 129.87 76.2764C129.72 73.8276 130.529 71.428 132.092 69.6934C133.016 68.6672 134.167 67.9173 135.419 67.5254Z" fill="#134BB7"/>
<path d="M50.504 127V115.8H52.216L59.24 124.424H58.392V115.8H60.456V127H58.744L51.72 118.376H52.568V127H50.504ZM67.2811 127.112C66.3318 127.112 65.4998 126.925 64.7851 126.552C64.0811 126.168 63.5318 125.645 63.1371 124.984C62.7531 124.323 62.5611 123.571 62.5611 122.728C62.5611 121.875 62.7478 121.123 63.1211 120.472C63.5051 119.811 64.0278 119.293 64.6891 118.92C65.3611 118.547 66.1238 118.36 66.9771 118.36C67.8091 118.36 68.5505 118.541 69.2011 118.904C69.8518 119.267 70.3638 119.779 70.7371 120.44C71.1105 121.101 71.2971 121.88 71.2971 122.776C71.2971 122.861 71.2918 122.957 71.2811 123.064C71.2811 123.171 71.2758 123.272 71.2651 123.368H64.1451V122.04H70.2091L69.4251 122.456C69.4358 121.965 69.3345 121.533 69.1211 121.16C68.9078 120.787 68.6145 120.493 68.2411 120.28C67.8785 120.067 67.4571 119.96 66.9771 119.96C66.4865 119.96 66.0545 120.067 65.6811 120.28C65.3185 120.493 65.0305 120.792 64.8171 121.176C64.6145 121.549 64.5131 121.992 64.5131 122.504V122.824C64.5131 123.336 64.6305 123.789 64.8651 124.184C65.0998 124.579 65.4305 124.883 65.8571 125.096C66.2838 125.309 66.7745 125.416 67.3291 125.416C67.8091 125.416 68.2411 125.341 68.6251 125.192C69.0091 125.043 69.3505 124.808 69.6491 124.488L70.7211 125.72C70.3371 126.168 69.8518 126.515 69.2651 126.76C68.6891 126.995 68.0278 127.112 67.2811 127.112ZM74.95 127L71.814 118.456H73.702L76.39 125.992H75.494L78.31 118.456H79.99L82.726 125.992H81.846L84.614 118.456H86.39L83.238 127H81.318L78.822 120.328H79.414L76.87 127H74.95ZM97.563 127.16C96.7097 127.16 95.915 127.021 95.179 126.744C94.4537 126.456 93.819 126.056 93.275 125.544C92.7417 125.021 92.3257 124.408 92.027 123.704C91.7283 123 91.579 122.232 91.579 121.4C91.579 120.568 91.7283 119.8 92.027 119.096C92.3257 118.392 92.747 117.784 93.291 117.272C93.835 116.749 94.4697 116.349 95.195 116.072C95.9203 115.784 96.715 115.64 97.579 115.64C98.4963 115.64 99.3337 115.8 100.091 116.12C100.848 116.429 101.488 116.893 102.011 117.512L100.667 118.776C100.262 118.339 99.8083 118.013 99.307 117.8C98.8057 117.576 98.2617 117.464 97.675 117.464C97.0883 117.464 96.5497 117.56 96.059 117.752C95.579 117.944 95.1577 118.216 94.795 118.568C94.443 118.92 94.1657 119.336 93.963 119.816C93.771 120.296 93.675 120.824 93.675 121.4C93.675 121.976 93.771 122.504 93.963 122.984C94.1657 123.464 94.443 123.88 94.795 124.232C95.1577 124.584 95.579 124.856 96.059 125.048C96.5497 125.24 97.0883 125.336 97.675 125.336C98.2617 125.336 98.8057 125.229 99.307 125.016C99.8083 124.792 100.262 124.456 100.667 124.008L102.011 125.288C101.488 125.896 100.848 126.36 100.091 126.68C99.3337 127 98.491 127.16 97.563 127.16ZM107.183 127.112C106.309 127.112 105.53 126.925 104.847 126.552C104.165 126.168 103.626 125.645 103.231 124.984C102.837 124.323 102.639 123.571 102.639 122.728C102.639 121.875 102.837 121.123 103.231 120.472C103.626 119.811 104.165 119.293 104.847 118.92C105.53 118.547 106.309 118.36 107.183 118.36C108.069 118.36 108.853 118.547 109.535 118.92C110.229 119.293 110.767 119.805 111.151 120.456C111.546 121.107 111.743 121.864 111.743 122.728C111.743 123.571 111.546 124.323 111.151 124.984C110.767 125.645 110.229 126.168 109.535 126.552C108.853 126.925 108.069 127.112 107.183 127.112ZM107.183 125.4C107.674 125.4 108.111 125.293 108.495 125.08C108.879 124.867 109.178 124.557 109.391 124.152C109.615 123.747 109.727 123.272 109.727 122.728C109.727 122.173 109.615 121.699 109.391 121.304C109.178 120.899 108.879 120.589 108.495 120.376C108.111 120.163 107.679 120.056 107.199 120.056C106.709 120.056 106.271 120.163 105.887 120.376C105.514 120.589 105.215 120.899 104.991 121.304C104.767 121.699 104.655 122.173 104.655 122.728C104.655 123.272 104.767 123.747 104.991 124.152C105.215 124.557 105.514 124.867 105.887 125.08C106.271 125.293 106.703 125.4 107.183 125.4ZM113.656 127V118.456H115.56V120.76L115.224 120.056C115.522 119.512 115.954 119.096 116.52 118.808C117.096 118.509 117.757 118.36 118.504 118.36C119.186 118.36 119.794 118.493 120.328 118.76C120.872 119.027 121.298 119.437 121.608 119.992C121.917 120.536 122.072 121.24 122.072 122.104V127H120.072V122.36C120.072 121.603 119.89 121.037 119.528 120.664C119.176 120.291 118.68 120.104 118.04 120.104C117.57 120.104 117.154 120.2 116.792 120.392C116.429 120.584 116.146 120.872 115.944 121.256C115.752 121.629 115.656 122.104 115.656 122.68V127H113.656ZM124.609 127V118.456H126.513V120.76L126.177 120.056C126.476 119.512 126.908 119.096 127.473 118.808C128.049 118.509 128.71 118.36 129.457 118.36C130.14 118.36 130.748 118.493 131.281 118.76C131.825 119.027 132.252 119.437 132.561 119.992C132.87 120.536 133.025 121.24 133.025 122.104V127H131.025V122.36C131.025 121.603 130.844 121.037 130.481 120.664C130.129 120.291 129.633 120.104 128.993 120.104C128.524 120.104 128.108 120.2 127.745 120.392C127.382 120.584 127.1 120.872 126.897 121.256C126.705 121.629 126.609 122.104 126.609 122.68V127H124.609ZM139.594 127.112C138.644 127.112 137.812 126.925 137.098 126.552C136.394 126.168 135.844 125.645 135.45 124.984C135.066 124.323 134.874 123.571 134.874 122.728C134.874 121.875 135.06 121.123 135.434 120.472C135.818 119.811 136.34 119.293 137.002 118.92C137.674 118.547 138.436 118.36 139.29 118.36C140.122 118.36 140.863 118.541 141.514 118.904C142.164 119.267 142.676 119.779 143.05 120.44C143.423 121.101 143.61 121.88 143.61 122.776C143.61 122.861 143.604 122.957 143.594 123.064C143.594 123.171 143.588 123.272 143.578 123.368H136.458V122.04H142.522L141.738 122.456C141.748 121.965 141.647 121.533 141.434 121.16C141.22 120.787 140.927 120.493 140.554 120.28C140.191 120.067 139.77 119.96 139.29 119.96C138.799 119.96 138.367 120.067 137.994 120.28C137.631 120.493 137.343 120.792 137.13 121.176C136.927 121.549 136.826 121.992 136.826 122.504V122.824C136.826 123.336 136.943 123.789 137.178 124.184C137.412 124.579 137.743 124.883 138.17 125.096C138.596 125.309 139.087 125.416 139.642 125.416C140.122 125.416 140.554 125.341 140.938 125.192C141.322 125.043 141.663 124.808 141.962 124.488L143.034 125.72C142.65 126.168 142.164 126.515 141.578 126.76C141.002 126.995 140.34 127.112 139.594 127.112ZM149.451 127.112C148.555 127.112 147.755 126.925 147.051 126.552C146.357 126.168 145.813 125.645 145.419 124.984C145.024 124.323 144.827 123.571 144.827 122.728C144.827 121.875 145.024 121.123 145.419 120.472C145.813 119.811 146.357 119.293 147.051 118.92C147.755 118.547 148.555 118.36 149.451 118.36C150.283 118.36 151.013 118.531 151.643 118.872C152.283 119.203 152.768 119.693 153.099 120.344L151.563 121.24C151.307 120.835 150.992 120.536 150.619 120.344C150.256 120.152 149.861 120.056 149.435 120.056C148.944 120.056 148.501 120.163 148.107 120.376C147.712 120.589 147.403 120.899 147.179 121.304C146.955 121.699 146.843 122.173 146.843 122.728C146.843 123.283 146.955 123.763 147.179 124.168C147.403 124.563 147.712 124.867 148.107 125.08C148.501 125.293 148.944 125.4 149.435 125.4C149.861 125.4 150.256 125.304 150.619 125.112C150.992 124.92 151.307 124.621 151.563 124.216L153.099 125.112C152.768 125.752 152.283 126.248 151.643 126.6C151.013 126.941 150.283 127.112 149.451 127.112ZM158.153 127.112C157.214 127.112 156.489 126.872 155.977 126.392C155.465 125.901 155.209 125.181 155.209 124.232V116.568H157.209V124.184C157.209 124.589 157.31 124.904 157.513 125.128C157.726 125.352 158.02 125.464 158.393 125.464C158.841 125.464 159.214 125.347 159.513 125.112L160.073 126.536C159.838 126.728 159.55 126.872 159.209 126.968C158.868 127.064 158.516 127.112 158.153 127.112ZM153.801 120.056V118.456H159.497V120.056H153.801ZM161.718 127V118.456H163.718V127H161.718ZM162.726 117.048C162.353 117.048 162.044 116.931 161.798 116.696C161.564 116.461 161.446 116.179 161.446 115.848C161.446 115.507 161.564 115.224 161.798 115C162.044 114.765 162.353 114.648 162.726 114.648C163.1 114.648 163.404 114.76 163.638 114.984C163.884 115.197 164.006 115.469 164.006 115.8C164.006 116.152 163.889 116.451 163.654 116.696C163.42 116.931 163.11 117.048 162.726 117.048ZM170.183 127.112C169.309 127.112 168.53 126.925 167.847 126.552C167.165 126.168 166.626 125.645 166.231 124.984C165.837 124.323 165.639 123.571 165.639 122.728C165.639 121.875 165.837 121.123 166.231 120.472C166.626 119.811 167.165 119.293 167.847 118.92C168.53 118.547 169.309 118.36 170.183 118.36C171.069 118.36 171.853 118.547 172.535 118.92C173.229 119.293 173.767 119.805 174.151 120.456C174.546 121.107 174.743 121.864 174.743 122.728C174.743 123.571 174.546 124.323 174.151 124.984C173.767 125.645 173.229 126.168 172.535 126.552C171.853 126.925 171.069 127.112 170.183 127.112ZM170.183 125.4C170.674 125.4 171.111 125.293 171.495 125.08C171.879 124.867 172.178 124.557 172.391 124.152C172.615 123.747 172.727 123.272 172.727 122.728C172.727 122.173 172.615 121.699 172.391 121.304C172.178 120.899 171.879 120.589 171.495 120.376C171.111 120.163 170.679 120.056 170.199 120.056C169.709 120.056 169.271 120.163 168.887 120.376C168.514 120.589 168.215 120.899 167.991 121.304C167.767 121.699 167.655 122.173 167.655 122.728C167.655 123.272 167.767 123.747 167.991 124.152C168.215 124.557 168.514 124.867 168.887 125.08C169.271 125.293 169.703 125.4 170.183 125.4ZM176.656 127V118.456H178.56V120.76L178.224 120.056C178.522 119.512 178.954 119.096 179.52 118.808C180.096 118.509 180.757 118.36 181.504 118.36C182.186 118.36 182.794 118.493 183.328 118.76C183.872 119.027 184.298 119.437 184.608 119.992C184.917 120.536 185.072 121.24 185.072 122.104V127H183.072V122.36C183.072 121.603 182.89 121.037 182.528 120.664C182.176 120.291 181.68 120.104 181.04 120.104C180.57 120.104 180.154 120.2 179.792 120.392C179.429 120.584 179.146 120.872 178.944 121.256C178.752 121.629 178.656 122.104 178.656 122.68V127H176.656ZM190.249 127.112C189.534 127.112 188.846 127.021 188.185 126.84C187.534 126.648 187.017 126.419 186.633 126.152L187.401 124.632C187.785 124.877 188.244 125.08 188.777 125.24C189.31 125.4 189.844 125.48 190.377 125.48C191.006 125.48 191.46 125.395 191.737 125.224C192.025 125.053 192.169 124.824 192.169 124.536C192.169 124.301 192.073 124.125 191.881 124.008C191.689 123.88 191.438 123.784 191.129 123.72C190.82 123.656 190.473 123.597 190.089 123.544C189.716 123.491 189.337 123.421 188.953 123.336C188.58 123.24 188.238 123.107 187.929 122.936C187.62 122.755 187.369 122.515 187.177 122.216C186.985 121.917 186.889 121.523 186.889 121.032C186.889 120.488 187.044 120.019 187.353 119.624C187.662 119.219 188.094 118.909 188.649 118.696C189.214 118.472 189.881 118.36 190.649 118.36C191.225 118.36 191.806 118.424 192.393 118.552C192.98 118.68 193.465 118.861 193.849 119.096L193.081 120.616C192.676 120.371 192.265 120.205 191.849 120.12C191.444 120.024 191.038 119.976 190.633 119.976C190.025 119.976 189.572 120.067 189.273 120.248C188.985 120.429 188.841 120.659 188.841 120.936C188.841 121.192 188.937 121.384 189.129 121.512C189.321 121.64 189.572 121.741 189.881 121.816C190.19 121.891 190.532 121.955 190.905 122.008C191.289 122.051 191.668 122.12 192.041 122.216C192.414 122.312 192.756 122.445 193.065 122.616C193.385 122.776 193.641 123.005 193.833 123.304C194.025 123.603 194.121 123.992 194.121 124.472C194.121 125.005 193.961 125.469 193.641 125.864C193.332 126.259 192.889 126.568 192.313 126.792C191.737 127.005 191.049 127.112 190.249 127.112Z" fill="#253858"/>
</g>
<g filter="url(#filter1_d_106_376)">
<rect x="115" y="111" width="196" height="146" rx="8" fill="white"/>
<rect x="116" y="112" width="194" height="144" rx="7" stroke="#D7352D" stroke-width="2"/>
<path fill-rule="evenodd" clip-rule="evenodd" d="M228.167 148.774C228.167 148.255 227.728 147.833 227.187 147.833L215.036 147.833C213.153 147.833 211.621 149.306 211.621 151.115C211.621 152.112 211.999 152.659 212.276 153.059C212.492 153.372 212.6 153.529 212.6 153.949C212.6 155.246 211.282 156.301 209.663 156.301C208.044 156.301 206.726 155.246 206.726 153.949C206.726 153.529 206.834 153.372 207.05 153.059C207.327 152.659 207.705 152.112 207.705 151.115C207.705 149.306 206.173 147.833 204.29 147.833H195.957C195.416 147.833 194.978 148.255 194.978 148.774V157.724C194.978 158.496 194.324 159.124 193.521 159.124C193.075 159.124 192.9 159.012 192.582 158.809C192.167 158.545 191.6 158.183 190.572 158.183C188.143 158.183 186.167 160.293 186.167 162.887C186.167 165.481 188.143 167.591 190.572 167.591C191.6 167.591 192.167 167.23 192.582 166.965C192.9 166.762 193.075 166.651 193.521 166.651C194.324 166.651 194.978 167.279 194.978 168.051V176.059C194.978 176.579 195.416 177 195.957 177H212.307C212.848 177 213.286 176.579 213.286 176.059C213.286 175.54 212.848 175.118 212.307 175.118H196.936V168.051C196.936 166.241 195.404 164.769 193.521 164.769C192.484 164.769 191.914 165.132 191.498 165.398C191.173 165.605 191.009 165.71 190.572 165.71C189.223 165.71 188.125 164.443 188.125 162.887C188.125 161.331 189.223 160.064 190.572 160.064C191.009 160.064 191.173 160.169 191.498 160.377C191.914 160.642 192.484 161.005 193.521 161.005C195.404 161.005 196.936 159.533 196.936 157.724V149.715H204.29C205.093 149.715 205.747 150.343 205.747 151.115C205.747 151.544 205.631 151.712 205.419 152.018C205.144 152.416 204.768 152.961 204.768 153.949C204.768 156.284 206.964 158.183 209.663 158.183C212.362 158.183 214.558 156.284 214.558 153.949C214.558 152.961 214.182 152.416 213.907 152.018C213.695 151.712 213.579 151.544 213.579 151.115C213.579 150.343 214.233 149.715 215.036 149.715H226.208V153.478C226.208 153.998 226.647 154.419 227.187 154.419C227.728 154.419 228.167 153.998 228.167 153.478V148.774Z" fill="#B3B9C5"/>
<path d="M219.363 161.991C224.04 157.33 231.65 157.33 236.326 161.991C241.002 166.652 241.002 174.236 236.326 178.897C233.988 181.228 230.916 182.394 227.845 182.394C225.374 182.394 222.903 181.639 220.813 180.131L220.852 180.168L219.16 181.853C219.609 182.46 219.853 183.191 219.853 183.959C219.852 184.909 219.482 185.803 218.808 186.475L211.958 193.302C211.284 193.974 210.388 194.344 209.435 194.344C208.481 194.344 207.585 193.974 206.911 193.302C206.237 192.63 205.866 191.736 205.866 190.786C205.866 189.836 206.237 188.942 206.911 188.27L213.761 181.443C214.643 180.564 215.876 180.242 217.016 180.478L218.992 178.509C214.692 173.824 214.815 166.525 219.363 161.991ZM216.284 182.558C215.924 182.558 215.565 182.695 215.291 182.968L208.441 189.795C208.176 190.059 208.03 190.412 208.03 190.786C208.03 191.16 208.176 191.512 208.441 191.776C208.707 192.041 209.06 192.187 209.436 192.187C209.811 192.187 210.163 192.041 210.429 191.776H210.43L217.278 184.948C217.544 184.684 217.689 184.332 217.689 183.958C217.689 183.584 217.544 183.232 217.278 182.968C217.004 182.695 216.644 182.558 216.284 182.558ZM227.845 160.77C225.358 160.77 222.872 161.714 220.979 163.601C217.194 167.374 217.194 173.514 220.979 177.287C222.872 179.173 225.359 180.117 227.845 180.117C230.331 180.117 232.817 179.174 234.71 177.287C238.496 173.514 238.496 167.374 234.71 163.601C232.817 161.714 230.331 160.771 227.845 160.77ZM226.419 162.525C227.016 162.34 227.635 162.725 227.803 163.387C227.971 164.048 227.623 164.736 227.027 164.923C226.144 165.199 225.332 165.729 224.679 166.454C223.574 167.68 223.002 169.375 223.108 171.106C223.15 171.792 222.683 172.387 222.065 172.434C222.039 172.436 222.013 172.437 221.987 172.437C221.403 172.436 220.91 171.933 220.87 171.276C220.72 168.828 221.529 166.428 223.092 164.693C224.016 163.667 225.167 162.917 226.419 162.525Z" fill="#929BAB"/>
<path d="M141.504 222V210.8H143.216L150.24 219.424H149.392V210.8H151.456V222H149.744L142.72 213.376H143.568V222H141.504ZM158.281 222.112C157.332 222.112 156.5 221.925 155.785 221.552C155.081 221.168 154.532 220.645 154.137 219.984C153.753 219.323 153.561 218.571 153.561 217.728C153.561 216.875 153.748 216.123 154.121 215.472C154.505 214.811 155.028 214.293 155.689 213.92C156.361 213.547 157.124 213.36 157.977 213.36C158.809 213.36 159.55 213.541 160.201 213.904C160.852 214.267 161.364 214.779 161.737 215.44C162.11 216.101 162.297 216.88 162.297 217.776C162.297 217.861 162.292 217.957 162.281 218.064C162.281 218.171 162.276 218.272 162.265 218.368H155.145V217.04H161.209L160.425 217.456C160.436 216.965 160.334 216.533 160.121 216.16C159.908 215.787 159.614 215.493 159.241 215.28C158.878 215.067 158.457 214.96 157.977 214.96C157.486 214.96 157.054 215.067 156.681 215.28C156.318 215.493 156.03 215.792 155.817 216.176C155.614 216.549 155.513 216.992 155.513 217.504V217.824C155.513 218.336 155.63 218.789 155.865 219.184C156.1 219.579 156.43 219.883 156.857 220.096C157.284 220.309 157.774 220.416 158.329 220.416C158.809 220.416 159.241 220.341 159.625 220.192C160.009 220.043 160.35 219.808 160.649 219.488L161.721 220.72C161.337 221.168 160.852 221.515 160.265 221.76C159.689 221.995 159.028 222.112 158.281 222.112ZM165.95 222L162.814 213.456H164.702L167.39 220.992H166.494L169.31 213.456H170.99L173.726 220.992H172.846L175.614 213.456H177.39L174.238 222H172.318L169.822 215.328H170.414L167.87 222H165.95ZM188.563 222.16C187.71 222.16 186.915 222.021 186.179 221.744C185.454 221.456 184.819 221.056 184.275 220.544C183.742 220.021 183.326 219.408 183.027 218.704C182.728 218 182.579 217.232 182.579 216.4C182.579 215.568 182.728 214.8 183.027 214.096C183.326 213.392 183.747 212.784 184.291 212.272C184.835 211.749 185.47 211.349 186.195 211.072C186.92 210.784 187.715 210.64 188.579 210.64C189.496 210.64 190.334 210.8 191.091 211.12C191.848 211.429 192.488 211.893 193.011 212.512L191.667 213.776C191.262 213.339 190.808 213.013 190.307 212.8C189.806 212.576 189.262 212.464 188.675 212.464C188.088 212.464 187.55 212.56 187.059 212.752C186.579 212.944 186.158 213.216 185.795 213.568C185.443 213.92 185.166 214.336 184.963 214.816C184.771 215.296 184.675 215.824 184.675 216.4C184.675 216.976 184.771 217.504 184.963 217.984C185.166 218.464 185.443 218.88 185.795 219.232C186.158 219.584 186.579 219.856 187.059 220.048C187.55 220.24 188.088 220.336 188.675 220.336C189.262 220.336 189.806 220.229 190.307 220.016C190.808 219.792 191.262 219.456 191.667 219.008L193.011 220.288C192.488 220.896 191.848 221.36 191.091 221.68C190.334 222 189.491 222.16 188.563 222.16ZM198.183 222.112C197.309 222.112 196.53 221.925 195.847 221.552C195.165 221.168 194.626 220.645 194.231 219.984C193.837 219.323 193.639 218.571 193.639 217.728C193.639 216.875 193.837 216.123 194.231 215.472C194.626 214.811 195.165 214.293 195.847 213.92C196.53 213.547 197.309 213.36 198.183 213.36C199.069 213.36 199.853 213.547 200.535 213.92C201.229 214.293 201.767 214.805 202.151 215.456C202.546 216.107 202.743 216.864 202.743 217.728C202.743 218.571 202.546 219.323 202.151 219.984C201.767 220.645 201.229 221.168 200.535 221.552C199.853 221.925 199.069 222.112 198.183 222.112ZM198.183 220.4C198.674 220.4 199.111 220.293 199.495 220.08C199.879 219.867 200.178 219.557 200.391 219.152C200.615 218.747 200.727 218.272 200.727 217.728C200.727 217.173 200.615 216.699 200.391 216.304C200.178 215.899 199.879 215.589 199.495 215.376C199.111 215.163 198.679 215.056 198.199 215.056C197.709 215.056 197.271 215.163 196.887 215.376C196.514 215.589 196.215 215.899 195.991 216.304C195.767 216.699 195.655 217.173 195.655 217.728C195.655 218.272 195.767 218.747 195.991 219.152C196.215 219.557 196.514 219.867 196.887 220.08C197.271 220.293 197.703 220.4 198.183 220.4ZM204.656 222V213.456H206.56V215.76L206.224 215.056C206.522 214.512 206.954 214.096 207.52 213.808C208.096 213.509 208.757 213.36 209.504 213.36C210.186 213.36 210.794 213.493 211.328 213.76C211.872 214.027 212.298 214.437 212.608 214.992C212.917 215.536 213.072 216.24 213.072 217.104V222H211.072V217.36C211.072 216.603 210.89 216.037 210.528 215.664C210.176 215.291 209.68 215.104 209.04 215.104C208.57 215.104 208.154 215.2 207.792 215.392C207.429 215.584 207.146 215.872 206.944 216.256C206.752 216.629 206.656 217.104 206.656 217.68V222H204.656ZM215.609 222V213.456H217.513V215.76L217.177 215.056C217.476 214.512 217.908 214.096 218.473 213.808C219.049 213.509 219.71 213.36 220.457 213.36C221.14 213.36 221.748 213.493 222.281 213.76C222.825 214.027 223.252 214.437 223.561 214.992C223.87 215.536 224.025 216.24 224.025 217.104V222H222.025V217.36C222.025 216.603 221.844 216.037 221.481 215.664C221.129 215.291 220.633 215.104 219.993 215.104C219.524 215.104 219.108 215.2 218.745 215.392C218.382 215.584 218.1 215.872 217.897 216.256C217.705 216.629 217.609 217.104 217.609 217.68V222H215.609ZM230.594 222.112C229.644 222.112 228.812 221.925 228.098 221.552C227.394 221.168 226.844 220.645 226.45 219.984C226.066 219.323 225.874 218.571 225.874 217.728C225.874 216.875 226.06 216.123 226.434 215.472C226.818 214.811 227.34 214.293 228.002 213.92C228.674 213.547 229.436 213.36 230.29 213.36C231.122 213.36 231.863 213.541 232.514 213.904C233.164 214.267 233.676 214.779 234.05 215.44C234.423 216.101 234.61 216.88 234.61 217.776C234.61 217.861 234.604 217.957 234.594 218.064C234.594 218.171 234.588 218.272 234.578 218.368H227.458V217.04H233.522L232.738 217.456C232.748 216.965 232.647 216.533 232.434 216.16C232.22 215.787 231.927 215.493 231.554 215.28C231.191 215.067 230.77 214.96 230.29 214.96C229.799 214.96 229.367 215.067 228.994 215.28C228.631 215.493 228.343 215.792 228.13 216.176C227.927 216.549 227.826 216.992 227.826 217.504V217.824C227.826 218.336 227.943 218.789 228.178 219.184C228.412 219.579 228.743 219.883 229.17 220.096C229.596 220.309 230.087 220.416 230.642 220.416C231.122 220.416 231.554 220.341 231.938 220.192C232.322 220.043 232.663 219.808 232.962 219.488L234.034 220.72C233.65 221.168 233.164 221.515 232.578 221.76C232.002 221.995 231.34 222.112 230.594 222.112ZM240.451 222.112C239.555 222.112 238.755 221.925 238.051 221.552C237.357 221.168 236.813 220.645 236.419 219.984C236.024 219.323 235.827 218.571 235.827 217.728C235.827 216.875 236.024 216.123 236.419 215.472C236.813 214.811 237.357 214.293 238.051 213.92C238.755 213.547 239.555 213.36 240.451 213.36C241.283 213.36 242.013 213.531 242.643 213.872C243.283 214.203 243.768 214.693 244.099 215.344L242.563 216.24C242.307 215.835 241.992 215.536 241.619 215.344C241.256 215.152 240.861 215.056 240.435 215.056C239.944 215.056 239.501 215.163 239.107 215.376C238.712 215.589 238.403 215.899 238.179 216.304C237.955 216.699 237.843 217.173 237.843 217.728C237.843 218.283 237.955 218.763 238.179 219.168C238.403 219.563 238.712 219.867 239.107 220.08C239.501 220.293 239.944 220.4 240.435 220.4C240.861 220.4 241.256 220.304 241.619 220.112C241.992 219.92 242.307 219.621 242.563 219.216L244.099 220.112C243.768 220.752 243.283 221.248 242.643 221.6C242.013 221.941 241.283 222.112 240.451 222.112ZM249.153 222.112C248.214 222.112 247.489 221.872 246.977 221.392C246.465 220.901 246.209 220.181 246.209 219.232V211.568H248.209V219.184C248.209 219.589 248.31 219.904 248.513 220.128C248.726 220.352 249.02 220.464 249.393 220.464C249.841 220.464 250.214 220.347 250.513 220.112L251.073 221.536C250.838 221.728 250.55 221.872 250.209 221.968C249.868 222.064 249.516 222.112 249.153 222.112ZM244.801 215.056V213.456H250.497V215.056H244.801ZM252.718 222V213.456H254.718V222H252.718ZM253.726 212.048C253.353 212.048 253.044 211.931 252.798 211.696C252.564 211.461 252.446 211.179 252.446 210.848C252.446 210.507 252.564 210.224 252.798 210C253.044 209.765 253.353 209.648 253.726 209.648C254.1 209.648 254.404 209.76 254.638 209.984C254.884 210.197 255.006 210.469 255.006 210.8C255.006 211.152 254.889 211.451 254.654 211.696C254.42 211.931 254.11 212.048 253.726 212.048ZM261.183 222.112C260.309 222.112 259.53 221.925 258.847 221.552C258.165 221.168 257.626 220.645 257.231 219.984C256.837 219.323 256.639 218.571 256.639 217.728C256.639 216.875 256.837 216.123 257.231 215.472C257.626 214.811 258.165 214.293 258.847 213.92C259.53 213.547 260.309 213.36 261.183 213.36C262.069 213.36 262.853 213.547 263.535 213.92C264.229 214.293 264.767 214.805 265.151 215.456C265.546 216.107 265.743 216.864 265.743 217.728C265.743 218.571 265.546 219.323 265.151 219.984C264.767 220.645 264.229 221.168 263.535 221.552C262.853 221.925 262.069 222.112 261.183 222.112ZM261.183 220.4C261.674 220.4 262.111 220.293 262.495 220.08C262.879 219.867 263.178 219.557 263.391 219.152C263.615 218.747 263.727 218.272 263.727 217.728C263.727 217.173 263.615 216.699 263.391 216.304C263.178 215.899 262.879 215.589 262.495 215.376C262.111 215.163 261.679 215.056 261.199 215.056C260.709 215.056 260.271 215.163 259.887 215.376C259.514 215.589 259.215 215.899 258.991 216.304C258.767 216.699 258.655 217.173 258.655 217.728C258.655 218.272 258.767 218.747 258.991 219.152C259.215 219.557 259.514 219.867 259.887 220.08C260.271 220.293 260.703 220.4 261.183 220.4ZM267.656 222V213.456H269.56V215.76L269.224 215.056C269.522 214.512 269.954 214.096 270.52 213.808C271.096 213.509 271.757 213.36 272.504 213.36C273.186 213.36 273.794 213.493 274.328 213.76C274.872 214.027 275.298 214.437 275.608 214.992C275.917 215.536 276.072 216.24 276.072 217.104V222H274.072V217.36C274.072 216.603 273.89 216.037 273.528 215.664C273.176 215.291 272.68 215.104 272.04 215.104C271.57 215.104 271.154 215.2 270.792 215.392C270.429 215.584 270.146 215.872 269.944 216.256C269.752 216.629 269.656 217.104 269.656 217.68V222H267.656ZM281.249 222.112C280.534 222.112 279.846 222.021 279.185 221.84C278.534 221.648 278.017 221.419 277.633 221.152L278.401 219.632C278.785 219.877 279.244 220.08 279.777 220.24C280.31 220.4 280.844 220.48 281.377 220.48C282.006 220.48 282.46 220.395 282.737 220.224C283.025 220.053 283.169 219.824 283.169 219.536C283.169 219.301 283.073 219.125 282.881 219.008C282.689 218.88 282.438 218.784 282.129 218.72C281.82 218.656 281.473 218.597 281.089 218.544C280.716 218.491 280.337 218.421 279.953 218.336C279.58 218.24 279.238 218.107 278.929 217.936C278.62 217.755 278.369 217.515 278.177 217.216C277.985 216.917 277.889 216.523 277.889 216.032C277.889 215.488 278.044 215.019 278.353 214.624C278.662 214.219 279.094 213.909 279.649 213.696C280.214 213.472 280.881 213.36 281.649 213.36C282.225 213.36 282.806 213.424 283.393 213.552C283.98 213.68 284.465 213.861 284.849 214.096L284.081 215.616C283.676 215.371 283.265 215.205 282.849 215.12C282.444 215.024 282.038 214.976 281.633 214.976C281.025 214.976 280.572 215.067 280.273 215.248C279.985 215.429 279.841 215.659 279.841 215.936C279.841 216.192 279.937 216.384 280.129 216.512C280.321 216.64 280.572 216.741 280.881 216.816C281.19 216.891 281.532 216.955 281.905 217.008C282.289 217.051 282.668 217.12 283.041 217.216C283.414 217.312 283.756 217.445 284.065 217.616C284.385 217.776 284.641 218.005 284.833 218.304C285.025 218.603 285.121 218.992 285.121 219.472C285.121 220.005 284.961 220.469 284.641 220.864C284.332 221.259 283.889 221.568 283.313 221.792C282.737 222.005 282.049 222.112 281.249 222.112Z" fill="#253858"/>
</g>
<defs>
<filter id="filter0_d_106_376" x="12" y="6" width="220" height="170" filterUnits="userSpaceOnUse" color-interpolation-filters="sRGB">
<feFlood flood-opacity="0" result="BackgroundImageFix"/>
<feColorMatrix in="SourceAlpha" type="matrix" values="0 0 0 0 0 0 0 0 0 0 0 0 0 0 0 0 0 0 127 0" result="hardAlpha"/>
<feOffset dy="2"/>
<feGaussianBlur stdDeviation="6"/>
<feColorMatrix type="matrix" values="0 0 0 0 0.0784314 0 0 0 0 0.121569 0 0 0 0 0.196078 0 0 0 0.1 0"/>
<feBlend mode="normal" in2="BackgroundImageFix" result="effect1_dropShadow_106_376"/>
<feBlend mode="normal" in="SourceGraphic" in2="effect1_dropShadow_106_376" result="shape"/>
</filter>
<filter id="filter1_d_106_376" x="103" y="101" width="220" height="170" filterUnits="userSpaceOnUse" color-interpolation-filters="sRGB">
<feFlood flood-opacity="0" result="BackgroundImageFix"/>
<feColorMatrix in="SourceAlpha" type="matrix" values="0 0 0 0 0 0 0 0 0 0 0 0 0 0 0 0 0 0 127 0" result="hardAlpha"/>
<feOffset dy="2"/>
<feGaussianBlur stdDeviation="6"/>
<feColorMatrix type="matrix" values="0 0 0 0 0.0784314 0 0 0 0 0.121569 0 0 0 0 0.196078 0 0 0 0.1 0"/>
<feBlend mode="normal" in2="BackgroundImageFix" result="effect1_dropShadow_106_376"/>
<feBlend mode="normal" in="SourceGraphic" in2="effect1_dropShadow_106_376" result="shape"/>
</filter>
</defs>
</svg>
