<svg width="412" height="213" viewBox="0 0 412 213" fill="none" xmlns="http://www.w3.org/2000/svg">
<rect width="412" height="213" rx="6" fill="white"/>
<g opacity="0.898692" clip-path="url(#clip0_106_336)">
<rect x="16" y="16" width="320" height="80" fill="#DEE1E5"/>
<path d="M328 60H24V32C24 27.5817 27.5817 24 32 24H186C190.418 24 194 27.5817 194 32V50C194 54.4183 197.582 58 202 58H328V60Z" fill="white"/>
<rect x="24" y="56" width="304" height="29" fill="#F0F3F4"/>
<path d="M178 41.0573L181.3 37.7573L182.243 38.7L178.943 42L182.243 45.3L181.3 46.2427L178 42.9427L174.7 46.2427L173.757 45.3L177.057 42L173.757 38.7L174.7 37.7573L178 41.0573Z" fill="#253858"/>
<path d="M306 41.0573L309.3 37.7573L310.243 38.7L306.943 42L310.243 45.3L309.3 46.2427L306 42.9427L302.7 46.2427L301.757 45.3L305.057 42L301.757 38.7L302.7 37.7573L306 41.0573Z" fill="#647188"/>
<path d="M66.912 41.644C67.4 41.78 67.784 42.028 68.064 42.388C68.344 42.74 68.484 43.188 68.484 43.732C68.484 44.46 68.208 45.02 67.656 45.412C67.112 45.804 66.316 46 65.268 46H61.26V37.6H65.028C65.988 37.6 66.728 37.792 67.248 38.176C67.776 38.56 68.04 39.092 68.04 39.772C68.04 40.212 67.936 40.592 67.728 40.912C67.528 41.232 67.256 41.476 66.912 41.644ZM62.46 38.572V41.26H64.92C65.536 41.26 66.008 41.148 66.336 40.924C66.672 40.692 66.84 40.356 66.84 39.916C66.84 39.476 66.672 39.144 66.336 38.92C66.008 38.688 65.536 38.572 64.92 38.572H62.46ZM65.22 45.028C65.9 45.028 66.412 44.916 66.756 44.692C67.1 44.468 67.272 44.116 67.272 43.636C67.272 42.7 66.588 42.232 65.22 42.232H62.46V45.028H65.22ZM71.278 40.708C71.478 40.34 71.774 40.06 72.166 39.868C72.558 39.676 73.034 39.58 73.594 39.58V40.696C73.53 40.688 73.442 40.684 73.33 40.684C72.706 40.684 72.214 40.872 71.854 41.248C71.502 41.616 71.326 42.144 71.326 42.832V46H70.174V39.64H71.278V40.708ZM77.6793 46.072C77.0473 46.072 76.4793 45.932 75.9753 45.652C75.4713 45.372 75.0753 44.988 74.7873 44.5C74.5073 44.004 74.3673 43.444 74.3673 42.82C74.3673 42.196 74.5073 41.64 74.7873 41.152C75.0753 40.656 75.4713 40.272 75.9753 40C76.4793 39.72 77.0473 39.58 77.6793 39.58C78.3113 39.58 78.8753 39.72 79.3713 40C79.8753 40.272 80.2673 40.656 80.5473 41.152C80.8353 41.64 80.9793 42.196 80.9793 42.82C80.9793 43.444 80.8353 44.004 80.5473 44.5C80.2673 44.988 79.8753 45.372 79.3713 45.652C78.8753 45.932 78.3113 46.072 77.6793 46.072ZM77.6793 45.064C78.0873 45.064 78.4513 44.972 78.7713 44.788C79.0993 44.596 79.3553 44.332 79.5393 43.996C79.7233 43.652 79.8153 43.26 79.8153 42.82C79.8153 42.38 79.7233 41.992 79.5393 41.656C79.3553 41.312 79.0993 41.048 78.7713 40.864C78.4513 40.68 78.0873 40.588 77.6793 40.588C77.2713 40.588 76.9033 40.68 76.5753 40.864C76.2553 41.048 75.9993 41.312 75.8073 41.656C75.6233 41.992 75.5313 42.38 75.5313 42.82C75.5313 43.26 75.6233 43.652 75.8073 43.996C75.9993 44.332 76.2553 44.596 76.5753 44.788C76.9033 44.972 77.2713 45.064 77.6793 45.064ZM92.0207 39.64L89.6447 46H88.5407L86.7047 41.176L84.8447 46H83.7407L81.3767 39.64H82.4687L84.3167 44.704L86.2367 39.64H87.2087L89.0927 44.728L90.9887 39.64H92.0207ZM94.9316 46.072C94.4116 46.072 93.9116 46.004 93.4316 45.868C92.9516 45.724 92.5756 45.544 92.3036 45.328L92.7836 44.416C93.0636 44.616 93.4036 44.776 93.8036 44.896C94.2036 45.016 94.6076 45.076 95.0156 45.076C96.0236 45.076 96.5276 44.788 96.5276 44.212C96.5276 44.02 96.4596 43.868 96.3236 43.756C96.1876 43.644 96.0156 43.564 95.8076 43.516C95.6076 43.46 95.3196 43.4 94.9436 43.336C94.4316 43.256 94.0116 43.164 93.6836 43.06C93.3636 42.956 93.0876 42.78 92.8556 42.532C92.6236 42.284 92.5076 41.936 92.5076 41.488C92.5076 40.912 92.7476 40.452 93.2276 40.108C93.7076 39.756 94.3516 39.58 95.1596 39.58C95.5836 39.58 96.0076 39.632 96.4316 39.736C96.8556 39.84 97.2036 39.98 97.4756 40.156L96.9836 41.068C96.4636 40.732 95.8516 40.564 95.1476 40.564C94.6596 40.564 94.2876 40.644 94.0316 40.804C93.7756 40.964 93.6476 41.176 93.6476 41.44C93.6476 41.648 93.7196 41.812 93.8636 41.932C94.0076 42.052 94.1836 42.14 94.3916 42.196C94.6076 42.252 94.9076 42.316 95.2916 42.388C95.8036 42.476 96.2156 42.572 96.5276 42.676C96.8476 42.772 97.1196 42.94 97.3436 43.18C97.5676 43.42 97.6796 43.756 97.6796 44.188C97.6796 44.764 97.4316 45.224 96.9356 45.568C96.4476 45.904 95.7796 46.072 94.9316 46.072ZM104.867 42.856C104.867 42.944 104.859 43.06 104.843 43.204H99.6833C99.7553 43.764 99.9993 44.216 100.415 44.56C100.839 44.896 101.363 45.064 101.987 45.064C102.747 45.064 103.359 44.808 103.823 44.296L104.459 45.04C104.171 45.376 103.811 45.632 103.379 45.808C102.955 45.984 102.479 46.072 101.951 46.072C101.279 46.072 100.683 45.936 100.163 45.664C99.6433 45.384 99.2393 44.996 98.9513 44.5C98.6713 44.004 98.5313 43.444 98.5313 42.82C98.5313 42.204 98.6673 41.648 98.9393 41.152C99.2193 40.656 99.5993 40.272 100.079 40C100.567 39.72 101.115 39.58 101.723 39.58C102.331 39.58 102.871 39.72 103.343 40C103.823 40.272 104.195 40.656 104.459 41.152C104.731 41.648 104.867 42.216 104.867 42.856ZM101.723 40.552C101.171 40.552 100.707 40.72 100.331 41.056C99.9633 41.392 99.7473 41.832 99.6833 42.376H103.763C103.699 41.84 103.479 41.404 103.103 41.068C102.735 40.724 102.275 40.552 101.723 40.552ZM107.571 40.708C107.771 40.34 108.067 40.06 108.459 39.868C108.851 39.676 109.327 39.58 109.887 39.58V40.696C109.823 40.688 109.735 40.684 109.623 40.684C108.999 40.684 108.507 40.872 108.147 41.248C107.795 41.616 107.619 42.144 107.619 42.832V46H106.467V39.64H107.571V40.708ZM118.188 45.628C118.02 45.772 117.812 45.884 117.564 45.964C117.316 46.036 117.06 46.072 116.796 46.072C116.156 46.072 115.66 45.9 115.308 45.556C114.956 45.212 114.78 44.72 114.78 44.08V40.588H113.7V39.64H114.78V38.248H115.932V39.64H117.756V40.588H115.932V44.032C115.932 44.376 116.016 44.64 116.184 44.824C116.36 45.008 116.608 45.1 116.928 45.1C117.28 45.1 117.58 45 117.828 44.8L118.188 45.628ZM121.896 39.58C122.776 39.58 123.448 39.796 123.912 40.228C124.384 40.66 124.62 41.304 124.62 42.16V46H123.528V45.16C123.336 45.456 123.06 45.684 122.7 45.844C122.348 45.996 121.928 46.072 121.44 46.072C120.728 46.072 120.156 45.9 119.724 45.556C119.3 45.212 119.088 44.76 119.088 44.2C119.088 43.64 119.292 43.192 119.7 42.856C120.108 42.512 120.756 42.34 121.644 42.34H123.468V42.112C123.468 41.616 123.324 41.236 123.036 40.972C122.748 40.708 122.324 40.576 121.764 40.576C121.388 40.576 121.02 40.64 120.66 40.768C120.3 40.888 119.996 41.052 119.748 41.26L119.268 40.396C119.596 40.132 119.988 39.932 120.444 39.796C120.9 39.652 121.384 39.58 121.896 39.58ZM121.632 45.184C122.072 45.184 122.452 45.088 122.772 44.896C123.092 44.696 123.324 44.416 123.468 44.056V43.168H121.692C120.716 43.168 120.228 43.496 120.228 44.152C120.228 44.472 120.352 44.724 120.6 44.908C120.848 45.092 121.192 45.184 121.632 45.184ZM130.124 39.58C130.74 39.58 131.292 39.716 131.78 39.988C132.268 40.26 132.648 40.64 132.92 41.128C133.2 41.616 133.34 42.18 133.34 42.82C133.34 43.46 133.2 44.028 132.92 44.524C132.648 45.012 132.268 45.392 131.78 45.664C131.292 45.936 130.74 46.072 130.124 46.072C129.652 46.072 129.22 45.98 128.828 45.796C128.436 45.612 128.112 45.344 127.856 44.992V46H126.752V37.096H127.904V40.6C128.16 40.264 128.48 40.012 128.864 39.844C129.248 39.668 129.668 39.58 130.124 39.58ZM130.028 45.064C130.436 45.064 130.8 44.972 131.12 44.788C131.448 44.596 131.704 44.332 131.888 43.996C132.08 43.652 132.176 43.26 132.176 42.82C132.176 42.38 132.08 41.992 131.888 41.656C131.704 41.312 131.448 41.048 131.12 40.864C130.8 40.68 130.436 40.588 130.028 40.588C129.628 40.588 129.264 40.68 128.936 40.864C128.608 41.048 128.352 41.312 128.168 41.656C127.984 41.992 127.892 42.38 127.892 42.82C127.892 43.26 127.984 43.652 128.168 43.996C128.352 44.332 128.608 44.596 128.936 44.788C129.264 44.972 129.628 45.064 130.028 45.064ZM141.731 45.628C141.563 45.772 141.355 45.884 141.107 45.964C140.859 46.036 140.603 46.072 140.339 46.072C139.699 46.072 139.203 45.9 138.851 45.556C138.499 45.212 138.323 44.72 138.323 44.08V40.588H137.243V39.64H138.323V38.248H139.475V39.64H141.299V40.588H139.475V44.032C139.475 44.376 139.559 44.64 139.727 44.824C139.903 45.008 140.151 45.1 140.471 45.1C140.823 45.1 141.123 45 141.371 44.8L141.731 45.628ZM143.123 39.64H144.275V46H143.123V39.64ZM143.699 38.416C143.475 38.416 143.287 38.344 143.135 38.2C142.991 38.056 142.919 37.88 142.919 37.672C142.919 37.464 142.991 37.288 143.135 37.144C143.287 36.992 143.475 36.916 143.699 36.916C143.923 36.916 144.107 36.988 144.251 37.132C144.403 37.268 144.479 37.44 144.479 37.648C144.479 37.864 144.403 38.048 144.251 38.2C144.107 38.344 143.923 38.416 143.699 38.416ZM150.051 45.628C149.883 45.772 149.675 45.884 149.427 45.964C149.179 46.036 148.923 46.072 148.659 46.072C148.019 46.072 147.523 45.9 147.171 45.556C146.819 45.212 146.643 44.72 146.643 44.08V40.588H145.563V39.64H146.643V38.248H147.795V39.64H149.619V40.588H147.795V44.032C147.795 44.376 147.879 44.64 148.047 44.824C148.223 45.008 148.471 45.1 148.791 45.1C149.143 45.1 149.443 45 149.691 44.8L150.051 45.628ZM151.444 37.096H152.596V46H151.444V37.096ZM160.543 42.856C160.543 42.944 160.535 43.06 160.519 43.204H155.359C155.431 43.764 155.675 44.216 156.091 44.56C156.515 44.896 157.039 45.064 157.663 45.064C158.423 45.064 159.035 44.808 159.499 44.296L160.135 45.04C159.847 45.376 159.487 45.632 159.055 45.808C158.631 45.984 158.155 46.072 157.627 46.072C156.955 46.072 156.359 45.936 155.839 45.664C155.319 45.384 154.915 44.996 154.627 44.5C154.347 44.004 154.207 43.444 154.207 42.82C154.207 42.204 154.343 41.648 154.615 41.152C154.895 40.656 155.275 40.272 155.755 40C156.243 39.72 156.791 39.58 157.399 39.58C158.007 39.58 158.547 39.72 159.019 40C159.499 40.272 159.871 40.656 160.135 41.152C160.407 41.648 160.543 42.216 160.543 42.856ZM157.399 40.552C156.847 40.552 156.383 40.72 156.007 41.056C155.639 41.392 155.423 41.832 155.359 42.376H159.439C159.375 41.84 159.155 41.404 158.779 41.068C158.411 40.724 157.951 40.552 157.399 40.552Z" fill="#253858"/>
<path d="M240.128 37.6L237.32 46H236.06L233.768 39.292L231.476 46H230.192L227.384 37.6H228.62L230.888 44.428L233.252 37.6H234.356L236.672 44.464L238.988 37.6H240.128ZM246.695 42.856C246.695 42.944 246.687 43.06 246.671 43.204H241.511C241.583 43.764 241.827 44.216 242.243 44.56C242.667 44.896 243.191 45.064 243.815 45.064C244.575 45.064 245.187 44.808 245.651 44.296L246.287 45.04C245.999 45.376 245.639 45.632 245.207 45.808C244.783 45.984 244.307 46.072 243.779 46.072C243.107 46.072 242.511 45.936 241.991 45.664C241.471 45.384 241.067 44.996 240.779 44.5C240.499 44.004 240.359 43.444 240.359 42.82C240.359 42.204 240.495 41.648 240.767 41.152C241.047 40.656 241.427 40.272 241.907 40C242.395 39.72 242.943 39.58 243.551 39.58C244.159 39.58 244.699 39.72 245.171 40C245.651 40.272 246.023 40.656 246.287 41.152C246.559 41.648 246.695 42.216 246.695 42.856ZM243.551 40.552C242.999 40.552 242.535 40.72 242.159 41.056C241.791 41.392 241.575 41.832 241.511 42.376H245.591C245.527 41.84 245.307 41.404 244.931 41.068C244.563 40.724 244.103 40.552 243.551 40.552ZM251.667 39.58C252.283 39.58 252.835 39.716 253.323 39.988C253.811 40.26 254.191 40.64 254.463 41.128C254.743 41.616 254.883 42.18 254.883 42.82C254.883 43.46 254.743 44.028 254.463 44.524C254.191 45.012 253.811 45.392 253.323 45.664C252.835 45.936 252.283 46.072 251.667 46.072C251.195 46.072 250.763 45.98 250.371 45.796C249.979 45.612 249.655 45.344 249.399 44.992V46H248.295V37.096H249.447V40.6C249.703 40.264 250.023 40.012 250.407 39.844C250.791 39.668 251.211 39.58 251.667 39.58ZM251.571 45.064C251.979 45.064 252.343 44.972 252.663 44.788C252.991 44.596 253.247 44.332 253.431 43.996C253.623 43.652 253.719 43.26 253.719 42.82C253.719 42.38 253.623 41.992 253.431 41.656C253.247 41.312 252.991 41.048 252.663 40.864C252.343 40.68 251.979 40.588 251.571 40.588C251.171 40.588 250.807 40.68 250.479 40.864C250.151 41.048 249.895 41.312 249.711 41.656C249.527 41.992 249.435 42.38 249.435 42.82C249.435 43.26 249.527 43.652 249.711 43.996C249.895 44.332 250.151 44.596 250.479 44.788C250.807 44.972 251.171 45.064 251.571 45.064ZM258.299 46.072C257.779 46.072 257.279 46.004 256.799 45.868C256.319 45.724 255.943 45.544 255.671 45.328L256.151 44.416C256.431 44.616 256.771 44.776 257.171 44.896C257.571 45.016 257.975 45.076 258.383 45.076C259.391 45.076 259.895 44.788 259.895 44.212C259.895 44.02 259.827 43.868 259.691 43.756C259.555 43.644 259.383 43.564 259.175 43.516C258.975 43.46 258.687 43.4 258.311 43.336C257.799 43.256 257.379 43.164 257.051 43.06C256.731 42.956 256.455 42.78 256.223 42.532C255.991 42.284 255.875 41.936 255.875 41.488C255.875 40.912 256.115 40.452 256.595 40.108C257.075 39.756 257.719 39.58 258.527 39.58C258.951 39.58 259.375 39.632 259.799 39.736C260.223 39.84 260.571 39.98 260.843 40.156L260.351 41.068C259.831 40.732 259.219 40.564 258.515 40.564C258.027 40.564 257.655 40.644 257.399 40.804C257.143 40.964 257.015 41.176 257.015 41.44C257.015 41.648 257.087 41.812 257.231 41.932C257.375 42.052 257.551 42.14 257.759 42.196C257.975 42.252 258.275 42.316 258.659 42.388C259.171 42.476 259.583 42.572 259.895 42.676C260.215 42.772 260.487 42.94 260.711 43.18C260.935 43.42 261.047 43.756 261.047 44.188C261.047 44.764 260.799 45.224 260.303 45.568C259.815 45.904 259.147 46.072 258.299 46.072ZM262.487 39.64H263.639V46H262.487V39.64ZM263.063 38.416C262.839 38.416 262.651 38.344 262.499 38.2C262.355 38.056 262.283 37.88 262.283 37.672C262.283 37.464 262.355 37.288 262.499 37.144C262.651 36.992 262.839 36.916 263.063 36.916C263.287 36.916 263.471 36.988 263.615 37.132C263.767 37.268 263.843 37.44 263.843 37.648C263.843 37.864 263.767 38.048 263.615 38.2C263.471 38.344 263.287 38.416 263.063 38.416ZM269.414 45.628C269.246 45.772 269.038 45.884 268.79 45.964C268.542 46.036 268.286 46.072 268.022 46.072C267.382 46.072 266.886 45.9 266.534 45.556C266.182 45.212 266.006 44.72 266.006 44.08V40.588H264.926V39.64H266.006V38.248H267.158V39.64H268.982V40.588H267.158V44.032C267.158 44.376 267.242 44.64 267.41 44.824C267.586 45.008 267.834 45.1 268.154 45.1C268.506 45.1 268.806 45 269.054 44.8L269.414 45.628ZM276.344 42.856C276.344 42.944 276.336 43.06 276.32 43.204H271.16C271.232 43.764 271.476 44.216 271.892 44.56C272.316 44.896 272.84 45.064 273.464 45.064C274.224 45.064 274.836 44.808 275.3 44.296L275.936 45.04C275.648 45.376 275.288 45.632 274.856 45.808C274.432 45.984 273.956 46.072 273.428 46.072C272.756 46.072 272.16 45.936 271.64 45.664C271.12 45.384 270.716 44.996 270.428 44.5C270.148 44.004 270.008 43.444 270.008 42.82C270.008 42.204 270.144 41.648 270.416 41.152C270.696 40.656 271.076 40.272 271.556 40C272.044 39.72 272.592 39.58 273.2 39.58C273.808 39.58 274.348 39.72 274.82 40C275.3 40.272 275.672 40.656 275.936 41.152C276.208 41.648 276.344 42.216 276.344 42.856ZM273.2 40.552C272.648 40.552 272.184 40.72 271.808 41.056C271.44 41.392 271.224 41.832 271.16 42.376H275.24C275.176 41.84 274.956 41.404 274.58 41.068C274.212 40.724 273.752 40.552 273.2 40.552Z" fill="#647188"/>
<rect x="36" y="34" width="16" height="16" rx="8" fill="#B3B9C5"/>
<rect x="203" y="34" width="16" height="16" fill="white"/>
</g>
<rect x="30" y="28" width="28" height="28" fill="#36B37E" fill-opacity="0.08"/>
<path d="M31 28H57V26H58V28H60V29H58V55H60V56H58V58H57V56H31V58H30V56H28V55H30V29H28V28H30V26H31V28ZM31 29V55H57V29H31Z" fill="#36B37E"/>
<g opacity="0.898692" clip-path="url(#clip1_106_336)">
<rect x="76" y="117" width="320" height="80" fill="#DEE1E5"/>
<path d="M388 161H84V133C84 128.582 87.5817 125 92 125H246C250.418 125 254 128.582 254 133V151C254 155.418 257.582 159 262 159H388V161Z" fill="white"/>
<rect x="84" y="159" width="304" height="29" fill="#F0F3F4"/>
<path d="M238 142.057L241.3 138.757L242.243 139.7L238.943 143L242.243 146.3L241.3 147.243L238 143.943L234.7 147.243L233.757 146.3L237.057 143L233.757 139.7L234.7 138.757L238 142.057Z" fill="#253858"/>
<path d="M366 142.057L369.3 138.757L370.243 139.7L366.943 143L370.243 146.3L369.3 147.243L366 143.943L362.7 147.243L361.757 146.3L365.057 143L361.757 139.7L362.7 138.757L366 142.057Z" fill="#647188"/>
<path d="M126.912 142.644C127.4 142.78 127.784 143.028 128.064 143.388C128.344 143.74 128.484 144.188 128.484 144.732C128.484 145.46 128.208 146.02 127.656 146.412C127.112 146.804 126.316 147 125.268 147H121.26V138.6H125.028C125.988 138.6 126.728 138.792 127.248 139.176C127.776 139.56 128.04 140.092 128.04 140.772C128.04 141.212 127.936 141.592 127.728 141.912C127.528 142.232 127.256 142.476 126.912 142.644ZM122.46 139.572V142.26H124.92C125.536 142.26 126.008 142.148 126.336 141.924C126.672 141.692 126.84 141.356 126.84 140.916C126.84 140.476 126.672 140.144 126.336 139.92C126.008 139.688 125.536 139.572 124.92 139.572H122.46ZM125.22 146.028C125.9 146.028 126.412 145.916 126.756 145.692C127.1 145.468 127.272 145.116 127.272 144.636C127.272 143.7 126.588 143.232 125.22 143.232H122.46V146.028H125.22ZM131.278 141.708C131.478 141.34 131.774 141.06 132.166 140.868C132.558 140.676 133.034 140.58 133.594 140.58V141.696C133.53 141.688 133.442 141.684 133.33 141.684C132.706 141.684 132.214 141.872 131.854 142.248C131.502 142.616 131.326 143.144 131.326 143.832V147H130.174V140.64H131.278V141.708ZM137.679 147.072C137.047 147.072 136.479 146.932 135.975 146.652C135.471 146.372 135.075 145.988 134.787 145.5C134.507 145.004 134.367 144.444 134.367 143.82C134.367 143.196 134.507 142.64 134.787 142.152C135.075 141.656 135.471 141.272 135.975 141C136.479 140.72 137.047 140.58 137.679 140.58C138.311 140.58 138.875 140.72 139.371 141C139.875 141.272 140.267 141.656 140.547 142.152C140.835 142.64 140.979 143.196 140.979 143.82C140.979 144.444 140.835 145.004 140.547 145.5C140.267 145.988 139.875 146.372 139.371 146.652C138.875 146.932 138.311 147.072 137.679 147.072ZM137.679 146.064C138.087 146.064 138.451 145.972 138.771 145.788C139.099 145.596 139.355 145.332 139.539 144.996C139.723 144.652 139.815 144.26 139.815 143.82C139.815 143.38 139.723 142.992 139.539 142.656C139.355 142.312 139.099 142.048 138.771 141.864C138.451 141.68 138.087 141.588 137.679 141.588C137.271 141.588 136.903 141.68 136.575 141.864C136.255 142.048 135.999 142.312 135.807 142.656C135.623 142.992 135.531 143.38 135.531 143.82C135.531 144.26 135.623 144.652 135.807 144.996C135.999 145.332 136.255 145.596 136.575 145.788C136.903 145.972 137.271 146.064 137.679 146.064ZM152.021 140.64L149.645 147H148.541L146.705 142.176L144.845 147H143.741L141.377 140.64H142.469L144.317 145.704L146.237 140.64H147.209L149.093 145.728L150.989 140.64H152.021ZM154.932 147.072C154.412 147.072 153.912 147.004 153.432 146.868C152.952 146.724 152.576 146.544 152.304 146.328L152.784 145.416C153.064 145.616 153.404 145.776 153.804 145.896C154.204 146.016 154.608 146.076 155.016 146.076C156.024 146.076 156.528 145.788 156.528 145.212C156.528 145.02 156.46 144.868 156.324 144.756C156.188 144.644 156.016 144.564 155.808 144.516C155.608 144.46 155.32 144.4 154.944 144.336C154.432 144.256 154.012 144.164 153.684 144.06C153.364 143.956 153.088 143.78 152.856 143.532C152.624 143.284 152.508 142.936 152.508 142.488C152.508 141.912 152.748 141.452 153.228 141.108C153.708 140.756 154.352 140.58 155.16 140.58C155.584 140.58 156.008 140.632 156.432 140.736C156.856 140.84 157.204 140.98 157.476 141.156L156.984 142.068C156.464 141.732 155.852 141.564 155.148 141.564C154.66 141.564 154.288 141.644 154.032 141.804C153.776 141.964 153.648 142.176 153.648 142.44C153.648 142.648 153.72 142.812 153.864 142.932C154.008 143.052 154.184 143.14 154.392 143.196C154.608 143.252 154.908 143.316 155.292 143.388C155.804 143.476 156.216 143.572 156.528 143.676C156.848 143.772 157.12 143.94 157.344 144.18C157.568 144.42 157.68 144.756 157.68 145.188C157.68 145.764 157.432 146.224 156.936 146.568C156.448 146.904 155.78 147.072 154.932 147.072ZM164.867 143.856C164.867 143.944 164.859 144.06 164.843 144.204H159.683C159.755 144.764 159.999 145.216 160.415 145.56C160.839 145.896 161.363 146.064 161.987 146.064C162.747 146.064 163.359 145.808 163.823 145.296L164.459 146.04C164.171 146.376 163.811 146.632 163.379 146.808C162.955 146.984 162.479 147.072 161.951 147.072C161.279 147.072 160.683 146.936 160.163 146.664C159.643 146.384 159.239 145.996 158.951 145.5C158.671 145.004 158.531 144.444 158.531 143.82C158.531 143.204 158.667 142.648 158.939 142.152C159.219 141.656 159.599 141.272 160.079 141C160.567 140.72 161.115 140.58 161.723 140.58C162.331 140.58 162.871 140.72 163.343 141C163.823 141.272 164.195 141.656 164.459 142.152C164.731 142.648 164.867 143.216 164.867 143.856ZM161.723 141.552C161.171 141.552 160.707 141.72 160.331 142.056C159.963 142.392 159.747 142.832 159.683 143.376H163.763C163.699 142.84 163.479 142.404 163.103 142.068C162.735 141.724 162.275 141.552 161.723 141.552ZM167.571 141.708C167.771 141.34 168.067 141.06 168.459 140.868C168.851 140.676 169.327 140.58 169.887 140.58V141.696C169.823 141.688 169.735 141.684 169.623 141.684C168.999 141.684 168.507 141.872 168.147 142.248C167.795 142.616 167.619 143.144 167.619 143.832V147H166.467V140.64H167.571V141.708ZM178.188 146.628C178.02 146.772 177.812 146.884 177.564 146.964C177.316 147.036 177.06 147.072 176.796 147.072C176.156 147.072 175.66 146.9 175.308 146.556C174.956 146.212 174.78 145.72 174.78 145.08V141.588H173.7V140.64H174.78V139.248H175.932V140.64H177.756V141.588H175.932V145.032C175.932 145.376 176.016 145.64 176.184 145.824C176.36 146.008 176.608 146.1 176.928 146.1C177.28 146.1 177.58 146 177.828 145.8L178.188 146.628ZM181.896 140.58C182.776 140.58 183.448 140.796 183.912 141.228C184.384 141.66 184.62 142.304 184.62 143.16V147H183.528V146.16C183.336 146.456 183.06 146.684 182.7 146.844C182.348 146.996 181.928 147.072 181.44 147.072C180.728 147.072 180.156 146.9 179.724 146.556C179.3 146.212 179.088 145.76 179.088 145.2C179.088 144.64 179.292 144.192 179.7 143.856C180.108 143.512 180.756 143.34 181.644 143.34H183.468V143.112C183.468 142.616 183.324 142.236 183.036 141.972C182.748 141.708 182.324 141.576 181.764 141.576C181.388 141.576 181.02 141.64 180.66 141.768C180.3 141.888 179.996 142.052 179.748 142.26L179.268 141.396C179.596 141.132 179.988 140.932 180.444 140.796C180.9 140.652 181.384 140.58 181.896 140.58ZM181.632 146.184C182.072 146.184 182.452 146.088 182.772 145.896C183.092 145.696 183.324 145.416 183.468 145.056V144.168H181.692C180.716 144.168 180.228 144.496 180.228 145.152C180.228 145.472 180.352 145.724 180.6 145.908C180.848 146.092 181.192 146.184 181.632 146.184ZM190.124 140.58C190.74 140.58 191.292 140.716 191.78 140.988C192.268 141.26 192.648 141.64 192.92 142.128C193.2 142.616 193.34 143.18 193.34 143.82C193.34 144.46 193.2 145.028 192.92 145.524C192.648 146.012 192.268 146.392 191.78 146.664C191.292 146.936 190.74 147.072 190.124 147.072C189.652 147.072 189.22 146.98 188.828 146.796C188.436 146.612 188.112 146.344 187.856 145.992V147H186.752V138.096H187.904V141.6C188.16 141.264 188.48 141.012 188.864 140.844C189.248 140.668 189.668 140.58 190.124 140.58ZM190.028 146.064C190.436 146.064 190.8 145.972 191.12 145.788C191.448 145.596 191.704 145.332 191.888 144.996C192.08 144.652 192.176 144.26 192.176 143.82C192.176 143.38 192.08 142.992 191.888 142.656C191.704 142.312 191.448 142.048 191.12 141.864C190.8 141.68 190.436 141.588 190.028 141.588C189.628 141.588 189.264 141.68 188.936 141.864C188.608 142.048 188.352 142.312 188.168 142.656C187.984 142.992 187.892 143.38 187.892 143.82C187.892 144.26 187.984 144.652 188.168 144.996C188.352 145.332 188.608 145.596 188.936 145.788C189.264 145.972 189.628 146.064 190.028 146.064ZM201.731 146.628C201.563 146.772 201.355 146.884 201.107 146.964C200.859 147.036 200.603 147.072 200.339 147.072C199.699 147.072 199.203 146.9 198.851 146.556C198.499 146.212 198.323 145.72 198.323 145.08V141.588H197.243V140.64H198.323V139.248H199.475V140.64H201.299V141.588H199.475V145.032C199.475 145.376 199.559 145.64 199.727 145.824C199.903 146.008 200.151 146.1 200.471 146.1C200.823 146.1 201.123 146 201.371 145.8L201.731 146.628ZM203.123 140.64H204.275V147H203.123V140.64ZM203.699 139.416C203.475 139.416 203.287 139.344 203.135 139.2C202.991 139.056 202.919 138.88 202.919 138.672C202.919 138.464 202.991 138.288 203.135 138.144C203.287 137.992 203.475 137.916 203.699 137.916C203.923 137.916 204.107 137.988 204.251 138.132C204.403 138.268 204.479 138.44 204.479 138.648C204.479 138.864 204.403 139.048 204.251 139.2C204.107 139.344 203.923 139.416 203.699 139.416ZM210.051 146.628C209.883 146.772 209.675 146.884 209.427 146.964C209.179 147.036 208.923 147.072 208.659 147.072C208.019 147.072 207.523 146.9 207.171 146.556C206.819 146.212 206.643 145.72 206.643 145.08V141.588H205.563V140.64H206.643V139.248H207.795V140.64H209.619V141.588H207.795V145.032C207.795 145.376 207.879 145.64 208.047 145.824C208.223 146.008 208.471 146.1 208.791 146.1C209.143 146.1 209.443 146 209.691 145.8L210.051 146.628ZM211.444 138.096H212.596V147H211.444V138.096ZM220.543 143.856C220.543 143.944 220.535 144.06 220.519 144.204H215.359C215.431 144.764 215.675 145.216 216.091 145.56C216.515 145.896 217.039 146.064 217.663 146.064C218.423 146.064 219.035 145.808 219.499 145.296L220.135 146.04C219.847 146.376 219.487 146.632 219.055 146.808C218.631 146.984 218.155 147.072 217.627 147.072C216.955 147.072 216.359 146.936 215.839 146.664C215.319 146.384 214.915 145.996 214.627 145.5C214.347 145.004 214.207 144.444 214.207 143.82C214.207 143.204 214.343 142.648 214.615 142.152C214.895 141.656 215.275 141.272 215.755 141C216.243 140.72 216.791 140.58 217.399 140.58C218.007 140.58 218.547 140.72 219.019 141C219.499 141.272 219.871 141.656 220.135 142.152C220.407 142.648 220.543 143.216 220.543 143.856ZM217.399 141.552C216.847 141.552 216.383 141.72 216.007 142.056C215.639 142.392 215.423 142.832 215.359 143.376H219.439C219.375 142.84 219.155 142.404 218.779 142.068C218.411 141.724 217.951 141.552 217.399 141.552Z" fill="#253858"/>
<path d="M300.128 138.6L297.32 147H296.06L293.768 140.292L291.476 147H290.192L287.384 138.6H288.62L290.888 145.428L293.252 138.6H294.356L296.672 145.464L298.988 138.6H300.128ZM306.695 143.856C306.695 143.944 306.687 144.06 306.671 144.204H301.511C301.583 144.764 301.827 145.216 302.243 145.56C302.667 145.896 303.191 146.064 303.815 146.064C304.575 146.064 305.187 145.808 305.651 145.296L306.287 146.04C305.999 146.376 305.639 146.632 305.207 146.808C304.783 146.984 304.307 147.072 303.779 147.072C303.107 147.072 302.511 146.936 301.991 146.664C301.471 146.384 301.067 145.996 300.779 145.5C300.499 145.004 300.359 144.444 300.359 143.82C300.359 143.204 300.495 142.648 300.767 142.152C301.047 141.656 301.427 141.272 301.907 141C302.395 140.72 302.943 140.58 303.551 140.58C304.159 140.58 304.699 140.72 305.171 141C305.651 141.272 306.023 141.656 306.287 142.152C306.559 142.648 306.695 143.216 306.695 143.856ZM303.551 141.552C302.999 141.552 302.535 141.72 302.159 142.056C301.791 142.392 301.575 142.832 301.511 143.376H305.591C305.527 142.84 305.307 142.404 304.931 142.068C304.563 141.724 304.103 141.552 303.551 141.552ZM311.667 140.58C312.283 140.58 312.835 140.716 313.323 140.988C313.811 141.26 314.191 141.64 314.463 142.128C314.743 142.616 314.883 143.18 314.883 143.82C314.883 144.46 314.743 145.028 314.463 145.524C314.191 146.012 313.811 146.392 313.323 146.664C312.835 146.936 312.283 147.072 311.667 147.072C311.195 147.072 310.763 146.98 310.371 146.796C309.979 146.612 309.655 146.344 309.399 145.992V147H308.295V138.096H309.447V141.6C309.703 141.264 310.023 141.012 310.407 140.844C310.791 140.668 311.211 140.58 311.667 140.58ZM311.571 146.064C311.979 146.064 312.343 145.972 312.663 145.788C312.991 145.596 313.247 145.332 313.431 144.996C313.623 144.652 313.719 144.26 313.719 143.82C313.719 143.38 313.623 142.992 313.431 142.656C313.247 142.312 312.991 142.048 312.663 141.864C312.343 141.68 311.979 141.588 311.571 141.588C311.171 141.588 310.807 141.68 310.479 141.864C310.151 142.048 309.895 142.312 309.711 142.656C309.527 142.992 309.435 143.38 309.435 143.82C309.435 144.26 309.527 144.652 309.711 144.996C309.895 145.332 310.151 145.596 310.479 145.788C310.807 145.972 311.171 146.064 311.571 146.064ZM318.299 147.072C317.779 147.072 317.279 147.004 316.799 146.868C316.319 146.724 315.943 146.544 315.671 146.328L316.151 145.416C316.431 145.616 316.771 145.776 317.171 145.896C317.571 146.016 317.975 146.076 318.383 146.076C319.391 146.076 319.895 145.788 319.895 145.212C319.895 145.02 319.827 144.868 319.691 144.756C319.555 144.644 319.383 144.564 319.175 144.516C318.975 144.46 318.687 144.4 318.311 144.336C317.799 144.256 317.379 144.164 317.051 144.06C316.731 143.956 316.455 143.78 316.223 143.532C315.991 143.284 315.875 142.936 315.875 142.488C315.875 141.912 316.115 141.452 316.595 141.108C317.075 140.756 317.719 140.58 318.527 140.58C318.951 140.58 319.375 140.632 319.799 140.736C320.223 140.84 320.571 140.98 320.843 141.156L320.351 142.068C319.831 141.732 319.219 141.564 318.515 141.564C318.027 141.564 317.655 141.644 317.399 141.804C317.143 141.964 317.015 142.176 317.015 142.44C317.015 142.648 317.087 142.812 317.231 142.932C317.375 143.052 317.551 143.14 317.759 143.196C317.975 143.252 318.275 143.316 318.659 143.388C319.171 143.476 319.583 143.572 319.895 143.676C320.215 143.772 320.487 143.94 320.711 144.18C320.935 144.42 321.047 144.756 321.047 145.188C321.047 145.764 320.799 146.224 320.303 146.568C319.815 146.904 319.147 147.072 318.299 147.072ZM322.487 140.64H323.639V147H322.487V140.64ZM323.063 139.416C322.839 139.416 322.651 139.344 322.499 139.2C322.355 139.056 322.283 138.88 322.283 138.672C322.283 138.464 322.355 138.288 322.499 138.144C322.651 137.992 322.839 137.916 323.063 137.916C323.287 137.916 323.471 137.988 323.615 138.132C323.767 138.268 323.843 138.44 323.843 138.648C323.843 138.864 323.767 139.048 323.615 139.2C323.471 139.344 323.287 139.416 323.063 139.416ZM329.414 146.628C329.246 146.772 329.038 146.884 328.79 146.964C328.542 147.036 328.286 147.072 328.022 147.072C327.382 147.072 326.886 146.9 326.534 146.556C326.182 146.212 326.006 145.72 326.006 145.08V141.588H324.926V140.64H326.006V139.248H327.158V140.64H328.982V141.588H327.158V145.032C327.158 145.376 327.242 145.64 327.41 145.824C327.586 146.008 327.834 146.1 328.154 146.1C328.506 146.1 328.806 146 329.054 145.8L329.414 146.628ZM336.344 143.856C336.344 143.944 336.336 144.06 336.32 144.204H331.16C331.232 144.764 331.476 145.216 331.892 145.56C332.316 145.896 332.84 146.064 333.464 146.064C334.224 146.064 334.836 145.808 335.3 145.296L335.936 146.04C335.648 146.376 335.288 146.632 334.856 146.808C334.432 146.984 333.956 147.072 333.428 147.072C332.756 147.072 332.16 146.936 331.64 146.664C331.12 146.384 330.716 145.996 330.428 145.5C330.148 145.004 330.008 144.444 330.008 143.82C330.008 143.204 330.144 142.648 330.416 142.152C330.696 141.656 331.076 141.272 331.556 141C332.044 140.72 332.592 140.58 333.2 140.58C333.808 140.58 334.348 140.72 334.82 141C335.3 141.272 335.672 141.656 335.936 142.152C336.208 142.648 336.344 143.216 336.344 143.856ZM333.2 141.552C332.648 141.552 332.184 141.72 331.808 142.056C331.44 142.392 331.224 142.832 331.16 143.376H335.24C335.176 142.84 334.956 142.404 334.58 142.068C334.212 141.724 333.752 141.552 333.2 141.552Z" fill="#647188"/>
<rect x="96" y="135" width="16" height="16" rx="8" fill="#B3B9C5"/>
<rect x="263" y="135" width="16" height="16" fill="white"/>
</g>
<rect x="115" y="129" width="109" height="28" fill="#36B37E" fill-opacity="0.08"/>
<rect x="115" y="127" width="1" height="32" fill="#36B37E"/>
<rect x="113" y="129" width="114" height="1" fill="#36B37E"/>
<rect x="113" y="156" width="114" height="1" fill="#36B37E"/>
<rect x="224" y="127" width="1" height="32" fill="#36B37E"/>
<defs>
<clipPath id="clip0_106_336">
<rect width="320" height="80" fill="white" transform="translate(16 16)"/>
</clipPath>
<clipPath id="clip1_106_336">
<rect width="320" height="80" fill="white" transform="translate(76 117)"/>
</clipPath>
</defs>
</svg>
